<svg width="30" height="30" viewBox="0 0 30 30" fill="none" xmlns="http://www.w3.org/2000/svg">
<path d="M12 27C10.9471 26.7963 9.9359 26.4592 9 26" stroke="#4488FC" stroke-width="2" stroke-linecap="round" stroke-linejoin="round"/>
<path d="M18 3C20.5568 3.62081 22.8395 5.1461 24.4746 7.32613C26.1096 9.50617 27 12.2118 27 15C27 17.7882 26.1096 20.4938 24.4746 22.6739C22.8395 24.8539 20.5568 26.3792 18 27" stroke="#4488FC" stroke-width="2" stroke-linecap="round" stroke-linejoin="round"/>
<path d="M5 22C4.11085 21.0827 3.43553 20.0698 3 19" stroke="#4488FC" stroke-width="2" stroke-linecap="round" stroke-linejoin="round"/>
<path d="M3 13C3.14967 11.7248 3.43779 10.5168 3.84191 9.4094L4 9" stroke="#4488FC" stroke-width="2" stroke-linecap="round" stroke-linejoin="round"/>
<path d="M8 5C9.21003 4.05 10.5675 3.37126 12 3" stroke="#4488FC" stroke-width="2" stroke-linecap="round" stroke-linejoin="round"/>
<path d="M15 11L12 15.5H18L15 20" stroke="#4488FC" stroke-width="2" stroke-linecap="round" stroke-linejoin="round"/>
</svg>
