<svg width="74" height="32" viewBox="0 0 74 32" fill="none" xmlns="http://www.w3.org/2000/svg">
<g clip-path="url(#clip0_285_22)">
<mask id="mask0_285_22" style="mask-type:luminance" maskUnits="userSpaceOnUse" x="0" y="0" width="74" height="32">
<path d="M74 0H0V32H74V0Z" fill="white"/>
</mask>
<g mask="url(#mask0_285_22)">
<path d="M14.7408 26.1692C14.7408 25.5116 14.5597 24.847 14.1976 24.1758C13.8355 23.4913 13.1783 22.8536 12.226 22.2631C11.2737 21.6724 9.89896 21.1825 8.10169 20.7932C6.88118 20.5247 5.80818 20.2294 4.88272 19.9073C3.9707 19.585 3.2062 19.2025 2.58923 18.7594C1.97226 18.3032 1.50954 17.7527 1.20105 17.1085C0.892568 16.4641 0.738327 15.6989 0.738327 14.813C0.738327 14.0478 0.899274 13.3364 1.22117 12.6787C1.55648 12.0075 2.03932 11.4235 2.66971 10.9269C3.30008 10.4168 4.06459 10.0208 4.96323 9.73889C5.86183 9.45699 6.88118 9.31606 8.02121 9.31606C9.64412 9.31606 11.0323 9.5778 12.1858 10.1013C13.3526 10.6249 14.2445 11.3564 14.8615 12.296C15.4919 13.2223 15.8071 14.3029 15.8071 15.5378H14.7006C14.7006 14.6385 14.439 13.7995 13.9159 13.0209C13.4063 12.2424 12.6552 11.6115 11.6627 11.1282C10.6701 10.645 9.45635 10.4034 8.02121 10.4034C6.55928 10.4034 5.37228 10.6249 4.46026 11.0678C3.54821 11.5108 2.8776 12.0679 2.4484 12.739C2.03261 13.4102 1.82472 14.0881 1.82472 14.7727C1.82472 15.3365 1.9052 15.86 2.06615 16.3433C2.22709 16.813 2.53559 17.2561 2.9916 17.6722C3.46103 18.0749 4.13165 18.4574 5.00343 18.82C5.87525 19.1824 7.01531 19.5246 8.42359 19.8468C10.1538 20.236 11.5621 20.706 12.6485 21.2562C13.7349 21.8067 14.5329 22.4845 15.0426 23.2899C15.5656 24.082 15.8272 25.0484 15.8272 26.1894C15.8272 27.035 15.6461 27.807 15.284 28.5051C14.9353 29.203 14.4256 29.807 13.755 30.3172C13.0978 30.8272 12.2931 31.2233 11.3408 31.5052C10.4019 31.7737 9.34905 31.9078 8.18216 31.9078C6.42516 31.9078 4.93637 31.6394 3.71587 31.1025C2.50875 30.5521 1.59001 29.8271 0.95963 28.9278C0.342665 28.015 0.0341797 27.0285 0.0341797 25.968H1.12058C1.21446 27.2163 1.62354 28.1963 2.3478 28.9077C3.08549 29.6058 3.97741 30.1024 5.02355 30.3977C6.08314 30.6796 7.13602 30.8206 8.18216 30.8206C9.6173 30.8206 10.8177 30.5923 11.7834 30.1359C12.7625 29.6795 13.5002 29.0956 13.9964 28.3842C14.4927 27.6594 14.7408 26.9211 14.7408 26.1692ZM22.929 0.577319V31.5052H21.8426V0.577319H22.929ZM22.7479 18.7393L22.1645 17.5916C22.2986 16.5178 22.5936 15.4909 23.0497 14.511C23.5057 13.5176 24.1026 12.6317 24.8404 11.8531C25.578 11.0745 26.4364 10.457 27.4155 10.0006C28.3945 9.54425 29.4743 9.31606 30.6545 9.31606C31.7543 9.31606 32.7334 9.47042 33.5919 9.77913C34.4502 10.0745 35.1744 10.551 35.7647 11.2088C36.3547 11.8531 36.804 12.6853 37.1126 13.7055C37.4211 14.7257 37.5754 15.9607 37.5754 17.4105V31.5052H36.4888V17.4105C36.4888 15.558 36.2341 14.1284 35.7244 13.1216C35.2282 12.1014 34.5374 11.39 33.6521 10.9873C32.7669 10.5845 31.7476 10.3832 30.5942 10.3832C29.2261 10.3832 28.0525 10.692 27.0734 11.3094C26.1077 11.9135 25.3097 12.6719 24.6793 13.5847C24.0624 14.4975 23.5929 15.4238 23.271 16.3634C22.9625 17.3031 22.7881 18.095 22.7479 18.7393ZM45.7636 9.71873V31.5052H44.6771V9.71873H45.7636ZM44.1138 2.91302C44.1138 2.60427 44.2212 2.34252 44.4356 2.12774C44.6503 1.89955 44.912 1.78543 45.2202 1.78543C45.5287 1.78543 45.7904 1.89955 46.0051 2.12774C46.2331 2.34252 46.347 2.60427 46.347 2.91302C46.347 3.22176 46.2331 3.48351 46.0051 3.69831C45.7904 3.91307 45.5287 4.02045 45.2202 4.02045C44.912 4.02045 44.6503 3.91307 44.4356 3.69831C44.2212 3.48351 44.1138 3.22176 44.1138 2.91302ZM55.6416 31.5052H54.5554V6.61793C54.5554 5.22187 54.7834 4.04731 55.2393 3.09423C55.6955 2.12774 56.346 1.39616 57.191 0.899484C58.0493 0.402814 59.0684 0.154478 60.2488 0.154478C60.6647 0.154478 61.0938 0.181324 61.5365 0.235018C61.9789 0.275291 62.4083 0.362543 62.8239 0.496778L62.663 1.54382C62.2874 1.43642 61.9323 1.3626 61.5966 1.32233C61.2617 1.26863 60.819 1.24178 60.2689 1.24178C59.3165 1.24178 58.492 1.45656 57.7946 1.88612C57.1104 2.30225 56.5805 2.91302 56.2049 3.71843C55.8296 4.51042 55.6416 5.47692 55.6416 6.61793V31.5052ZM61.3955 9.71873V10.8262H50.7728V9.71873H61.3955ZM73.2857 9.71873V10.8262H63.2062V9.71873H73.2857ZM67.2299 3.83924H68.3366V26.2901C68.3366 27.5654 68.4839 28.5318 68.7789 29.1896C69.0875 29.8339 69.4899 30.2702 69.9861 30.4983C70.4958 30.7132 71.0392 30.8206 71.6157 30.8206C72.0316 30.8206 72.4003 30.8071 72.7224 30.7802C73.0442 30.74 73.393 30.6929 73.7687 30.6393L73.9494 31.6663C73.6544 31.7602 73.2721 31.8205 72.8027 31.8474C72.3333 31.8877 71.9576 31.9078 71.6762 31.9078C70.7505 31.9078 69.9527 31.7468 69.2821 31.4247C68.6247 31.089 68.1153 30.5118 67.7532 29.693C67.4043 28.8741 67.2299 27.7399 67.2299 26.2901V3.83924Z" fill="#212121"/>
</g>
</g>
<defs>
<clipPath id="clip0_285_22">
<rect width="74" height="32" fill="white"/>
</clipPath>
</defs>
</svg>
